<svg xmlns="http://www.w3.org/2000/svg" viewBox="0 0 1600 900" role="img" aria-label="北宋北方舆图底图">
  <defs>
    <filter id="paperNoise">
      <feTurbulence type="fractalNoise" baseFrequency="0.012" numOctaves="4" seed="18"/>
      <feColorMatrix type="saturate" values="0"/>
      <feBlend mode="multiply" in2="SourceGraphic"/>
    </filter>
    <radialGradient id="paper" cx="50%" cy="44%" r="72%">
      <stop offset="0" stop-color="#fff4d8"/>
      <stop offset="0.58" stop-color="#f1e2bd"/>
      <stop offset="1" stop-color="#cdb586"/>
    </radialGradient>
    <linearGradient id="mountain" x1="0" y1="0" x2="0" y2="1">
      <stop offset="0" stop-color="#6f765d"/>
      <stop offset="1" stop-color="#b9a979"/>
    </linearGradient>
  </defs>
  <rect width="1600" height="900" fill="url(#paper)"/>
  <g filter="url(#paperNoise)" opacity=".34">
    <rect width="1600" height="900" fill="#f3dfae"/>
  </g>
  <g fill="none" stroke-linecap="round" stroke-linejoin="round">
    <path d="M65 518 C210 438 307 508 441 421 C596 320 712 342 868 301 C1071 248 1232 283 1526 183" stroke="#6d8d82" stroke-width="18" opacity=".28"/>
    <path d="M65 518 C210 438 307 508 441 421 C596 320 712 342 868 301 C1071 248 1232 283 1526 183" stroke="#2f6f73" stroke-width="5" opacity=".78"/>
    <path d="M1066 771 C994 693 944 652 890 606 C815 543 758 505 668 471" stroke="#537f7d" stroke-width="4" stroke-dasharray="16 12" opacity=".52"/>
    <path d="M1091 704 C992 627 890 579 792 559" stroke="#c8a85a" stroke-width="5" stroke-dasharray="10 12" opacity=".54"/>
    <path d="M335 682 C450 620 523 574 640 562 C770 548 869 568 966 610" stroke="#3a6f61" stroke-width="4" stroke-dasharray="13 13" opacity=".52"/>
    <path d="M960 111 C917 174 871 214 804 258 C737 303 691 357 634 419" stroke="#7d2e24" stroke-width="8" opacity=".7"/>
    <path d="M1129 96 C1077 152 1045 208 1003 255 C952 313 905 351 846 395" stroke="#7d2e24" stroke-width="8" opacity=".66"/>
    <path d="M960 111 l-34 10 l18 31" stroke="#7d2e24" stroke-width="8" opacity=".7"/>
    <path d="M1129 96 l-35 8 l16 32" stroke="#7d2e24" stroke-width="8" opacity=".66"/>
  </g>
  <g opacity=".44">
    <path d="M181 231 l65-118 l75 126 l57-75 l63 113 z" fill="url(#mountain)"/>
    <path d="M373 731 l84-130 l71 104 l50-68 l68 113 z" fill="url(#mountain)"/>
    <path d="M1058 374 l62-98 l73 117 l53-70 l89 130 z" fill="url(#mountain)"/>
    <path d="M677 205 l71-112 l84 139 l48-62 l72 104 z" fill="url(#mountain)"/>
  </g>
  <g fill="#6e755c" opacity=".22">
    <ellipse cx="213" cy="257" rx="168" ry="42"/>
    <ellipse cx="1203" cy="438" rx="198" ry="50"/>
    <ellipse cx="521" cy="743" rx="174" ry="48"/>
  </g>
  <g fill="#a7342b" opacity=".18">
    <circle cx="828" cy="414" r="54"/>
    <circle cx="1000" cy="254" r="43"/>
    <circle cx="637" cy="557" r="35"/>
  </g>
  <g fill="#2f6f73" opacity=".15">
    <circle cx="1068" cy="710" r="42"/>
    <circle cx="433" cy="648" r="35"/>
  </g>
  <g fill="none" stroke="#3a3026" stroke-width="2" opacity=".18">
    <path d="M125 782 C241 728 312 720 406 739"/>
    <path d="M711 762 C802 717 891 719 993 755"/>
    <path d="M1067 576 C1162 531 1260 534 1389 577"/>
  </g>
</svg>
